<svg width="20" height="20" viewBox="0 0 20 20" fill="none" xmlns="http://www.w3.org/2000/svg">
<path d="M9.33438 0.660937C9.05495 1.02344 8.05495 2.31875 7.11303 3.53906L5.40031 5.75781L7.12402 5.76563C8.83517 5.77344 8.84615 5.77344 8.84301 5.80469C8.83988 5.82188 8.83203 5.88125 8.82261 5.9375C8.81162 6.00625 8.80691 7.21094 8.81005 9.71875C8.81633 13.7359 8.80848 13.4203 8.9011 13.6406C9.16327 14.2594 9.91366 14.5094 10.5133 14.1797C10.5808 14.1422 10.6703 14.0703 10.7567 13.9844C10.8697 13.8719 10.9042 13.8234 10.9639 13.7016C11.0942 13.4344 11.0848 13.7781 11.0785 9.60156C11.0754 7.55625 11.0675 5.85625 11.0597 5.825L11.0487 5.76563L14.2889 5.75781L13.3485 4.53906C12.8305 3.86875 11.8305 2.57344 11.1256 1.66094L9.84458 0L9.33438 0.660937Z" fill="var(--color-secondary)"/>
<path d="M0 20H20V8.34375H13.5479V10.4063H17.5196V17.9375H2.48038V10.4063H6.76609L6.76295 9.37813L6.75824 8.35156L0 8.34375V20Z" fill="var(--color-secondary)"/>
</svg>
